<mxfile host="app.diagrams.net" modified="2023-05-21T22:29:23.054Z" agent="Mozilla/5.0 (Windows NT 10.0; Win64; x64) AppleWebKit/537.36 (KHTML, like Gecko) Chrome/110.0.0.0 YaBrowser/23.3.4.603 Yowser/2.5 Safari/537.36" etag="GC7Hb2Gmmei-fgWQm0FW" version="21.3.2" type="device">
  <diagram name="Страница 1" id="75N97tFwm10yXT8jnYIW">
    <mxGraphModel dx="5106" dy="2592" grid="1" gridSize="10" guides="1" tooltips="1" connect="1" arrows="1" fold="1" page="1" pageScale="1" pageWidth="827" pageHeight="1169" math="0" shadow="0">
      <root>
        <mxCell id="0" />
        <mxCell id="1" parent="0" />
        <mxCell id="0SK4Kan7_9GHJnEtyxV1-1" value="Администратор" style="shape=umlActor;verticalLabelPosition=bottom;verticalAlign=top;html=1;outlineConnect=0;fillColor=#f8cecc;strokeColor=#000000;" parent="1" vertex="1">
          <mxGeometry x="-240" y="309.44" width="30" height="60" as="geometry" />
        </mxCell>
        <mxCell id="0SK4Kan7_9GHJnEtyxV1-2" value="Курьер" style="shape=umlActor;verticalLabelPosition=bottom;verticalAlign=top;html=1;outlineConnect=0;fillColor=#d5e8d4;strokeColor=#000000;" parent="1" vertex="1">
          <mxGeometry x="-1361.94" y="1110.1399999999999" width="30" height="60" as="geometry" />
        </mxCell>
        <mxCell id="0SK4Kan7_9GHJnEtyxV1-3" value="Анонимный клиент" style="shape=umlActor;verticalLabelPosition=bottom;verticalAlign=top;html=1;outlineConnect=0;fillColor=#eeeeee;strokeColor=#36393d;" parent="1" vertex="1">
          <mxGeometry x="-1405" y="830.1400000000001" width="30" height="60" as="geometry" />
        </mxCell>
        <mxCell id="0SK4Kan7_9GHJnEtyxV1-4" value="Сотрудник кухни" style="shape=umlActor;verticalLabelPosition=bottom;verticalAlign=top;html=1;outlineConnect=0;fillColor=#ffe6cc;strokeColor=#000000;" parent="1" vertex="1">
          <mxGeometry x="-1605" y="865.14" width="30" height="60" as="geometry" />
        </mxCell>
        <mxCell id="0SK4Kan7_9GHJnEtyxV1-9" value="Просмотр списка блюд" style="ellipse;whiteSpace=wrap;html=1;fillColor=#f5f5f5;fontColor=#333333;strokeColor=#666666;" parent="1" vertex="1">
          <mxGeometry x="-1419" y="745.1400000000001" width="120" height="40" as="geometry" />
        </mxCell>
        <mxCell id="0SK4Kan7_9GHJnEtyxV1-10" value="Выбор категории блюда" style="ellipse;whiteSpace=wrap;html=1;fillColor=#f5f5f5;fontColor=#333333;strokeColor=#666666;" parent="1" vertex="1">
          <mxGeometry x="-1235" y="765.1400000000001" width="120" height="40" as="geometry" />
        </mxCell>
        <mxCell id="0SK4Kan7_9GHJnEtyxV1-12" value="Поиск блюд по имени и описанию" style="ellipse;whiteSpace=wrap;html=1;fillColor=#f5f5f5;fontColor=#333333;strokeColor=#666666;" parent="1" vertex="1">
          <mxGeometry x="-1515" y="644.58" width="120" height="40" as="geometry" />
        </mxCell>
        <mxCell id="0SK4Kan7_9GHJnEtyxV1-13" value="Добавить блюдо в корзину" style="ellipse;whiteSpace=wrap;html=1;fillColor=#f5f5f5;fontColor=#333333;strokeColor=#666666;" parent="1" vertex="1">
          <mxGeometry x="-1189" y="694.58" width="120" height="40" as="geometry" />
        </mxCell>
        <mxCell id="0SK4Kan7_9GHJnEtyxV1-15" value="Просмотр детальной информации о блюде" style="ellipse;whiteSpace=wrap;html=1;fillColor=#f5f5f5;fontColor=#333333;strokeColor=#666666;" parent="1" vertex="1">
          <mxGeometry x="-1375" y="644.58" width="150" height="40" as="geometry" />
        </mxCell>
        <mxCell id="0SK4Kan7_9GHJnEtyxV1-19" value="" style="endArrow=classic;html=1;rounded=0;entryX=0.5;entryY=1;entryDx=0;entryDy=0;" parent="1" target="0SK4Kan7_9GHJnEtyxV1-9" edge="1">
          <mxGeometry width="50" height="50" relative="1" as="geometry">
            <mxPoint x="-1375" y="825.1400000000001" as="sourcePoint" />
            <mxPoint x="-1347" y="771.1400000000001" as="targetPoint" />
          </mxGeometry>
        </mxCell>
        <mxCell id="0SK4Kan7_9GHJnEtyxV1-20" value="" style="endArrow=classic;html=1;rounded=0;exitX=0.683;exitY=0;exitDx=0;exitDy=0;entryX=0.32;entryY=0.989;entryDx=0;entryDy=0;exitPerimeter=0;entryPerimeter=0;" parent="1" source="0SK4Kan7_9GHJnEtyxV1-9" target="0SK4Kan7_9GHJnEtyxV1-15" edge="1">
          <mxGeometry width="50" height="50" relative="1" as="geometry">
            <mxPoint x="-1414" y="1000.14" as="sourcePoint" />
            <mxPoint x="-1381" y="959.14" as="targetPoint" />
          </mxGeometry>
        </mxCell>
        <mxCell id="0SK4Kan7_9GHJnEtyxV1-21" value="" style="endArrow=classic;html=1;rounded=0;exitX=0.958;exitY=0.2;exitDx=0;exitDy=0;entryX=0;entryY=0.5;entryDx=0;entryDy=0;exitPerimeter=0;" parent="1" source="0SK4Kan7_9GHJnEtyxV1-9" target="0SK4Kan7_9GHJnEtyxV1-13" edge="1">
          <mxGeometry width="50" height="50" relative="1" as="geometry">
            <mxPoint x="-1339" y="925.14" as="sourcePoint" />
            <mxPoint x="-1299" y="865.14" as="targetPoint" />
          </mxGeometry>
        </mxCell>
        <mxCell id="0SK4Kan7_9GHJnEtyxV1-22" value="Просмотр блюд в корзине" style="ellipse;whiteSpace=wrap;html=1;fillColor=#f5f5f5;fontColor=#333333;strokeColor=#666666;" parent="1" vertex="1">
          <mxGeometry x="-1273" y="865.14" width="120" height="40" as="geometry" />
        </mxCell>
        <mxCell id="0SK4Kan7_9GHJnEtyxV1-23" value="Оформление заказа" style="ellipse;whiteSpace=wrap;html=1;fillColor=#f5f5f5;fontColor=#333333;strokeColor=#666666;" parent="1" vertex="1">
          <mxGeometry x="-1129" y="805.1400000000001" width="120" height="40" as="geometry" />
        </mxCell>
        <mxCell id="0SK4Kan7_9GHJnEtyxV1-24" value="" style="endArrow=classic;html=1;rounded=0;entryX=0.017;entryY=0.35;entryDx=0;entryDy=0;entryPerimeter=0;" parent="1" target="0SK4Kan7_9GHJnEtyxV1-22" edge="1">
          <mxGeometry width="50" height="50" relative="1" as="geometry">
            <mxPoint x="-1355" y="855.1400000000001" as="sourcePoint" />
            <mxPoint x="-1347" y="799.1400000000001" as="targetPoint" />
          </mxGeometry>
        </mxCell>
        <mxCell id="0SK4Kan7_9GHJnEtyxV1-25" value="" style="endArrow=classic;html=1;rounded=0;entryX=0;entryY=1;entryDx=0;entryDy=0;exitX=0.967;exitY=0.25;exitDx=0;exitDy=0;exitPerimeter=0;" parent="1" source="0SK4Kan7_9GHJnEtyxV1-22" target="0SK4Kan7_9GHJnEtyxV1-23" edge="1">
          <mxGeometry width="50" height="50" relative="1" as="geometry">
            <mxPoint x="-1323" y="995.14" as="sourcePoint" />
            <mxPoint x="-1193" y="1010.14" as="targetPoint" />
          </mxGeometry>
        </mxCell>
        <mxCell id="0SK4Kan7_9GHJnEtyxV1-27" value="" style="endArrow=classic;html=1;rounded=0;entryX=0;entryY=0.5;entryDx=0;entryDy=0;" parent="1" target="0SK4Kan7_9GHJnEtyxV1-28" edge="1">
          <mxGeometry width="50" height="50" relative="1" as="geometry">
            <mxPoint x="-1218" y="1005.42" as="sourcePoint" />
            <mxPoint x="-1188" y="985.42" as="targetPoint" />
          </mxGeometry>
        </mxCell>
        <mxCell id="0SK4Kan7_9GHJnEtyxV1-28" value="Просмотр списка заказов клиента" style="ellipse;whiteSpace=wrap;html=1;fillColor=#dae8fc;strokeColor=#6c8ebf;" parent="1" vertex="1">
          <mxGeometry x="-1188" y="965.42" width="120" height="40" as="geometry" />
        </mxCell>
        <mxCell id="0SK4Kan7_9GHJnEtyxV1-30" value="" style="endArrow=classic;html=1;rounded=0;entryX=0.029;entryY=0.68;entryDx=0;entryDy=0;exitX=1;exitY=0.5;exitDx=0;exitDy=0;entryPerimeter=0;fillColor=#dae8fc;strokeColor=#000000;" parent="1" source="0SK4Kan7_9GHJnEtyxV1-28" target="0SK4Kan7_9GHJnEtyxV1-31" edge="1">
          <mxGeometry width="50" height="50" relative="1" as="geometry">
            <mxPoint x="-1393.06" y="805.42" as="sourcePoint" />
            <mxPoint x="-1133.06" y="795.42" as="targetPoint" />
          </mxGeometry>
        </mxCell>
        <mxCell id="0SK4Kan7_9GHJnEtyxV1-31" value="Просмотр детальной информации о заказе" style="ellipse;whiteSpace=wrap;html=1;fillColor=#dae8fc;strokeColor=#6c8ebf;" parent="1" vertex="1">
          <mxGeometry x="-1008" y="895.42" width="140" height="50" as="geometry" />
        </mxCell>
        <mxCell id="0SK4Kan7_9GHJnEtyxV1-35" value="Отмена заказа" style="ellipse;whiteSpace=wrap;html=1;fillColor=#dae8fc;strokeColor=#6c8ebf;" parent="1" vertex="1">
          <mxGeometry x="-1008" y="975.42" width="120" height="40" as="geometry" />
        </mxCell>
        <mxCell id="0SK4Kan7_9GHJnEtyxV1-36" value="" style="endArrow=classic;html=1;rounded=0;exitX=0.5;exitY=1;exitDx=0;exitDy=0;entryX=0.5;entryY=0;entryDx=0;entryDy=0;fillColor=#dae8fc;strokeColor=#000000;" parent="1" source="0SK4Kan7_9GHJnEtyxV1-31" target="0SK4Kan7_9GHJnEtyxV1-35" edge="1">
          <mxGeometry width="50" height="50" relative="1" as="geometry">
            <mxPoint x="-1153.06" y="575.42" as="sourcePoint" />
            <mxPoint x="-1103.06" y="525.42" as="targetPoint" />
          </mxGeometry>
        </mxCell>
        <mxCell id="0SK4Kan7_9GHJnEtyxV1-49" value="Авторизованный клиент" style="shape=umlActor;verticalLabelPosition=bottom;verticalAlign=top;html=1;outlineConnect=0;fillColor=#cce5ff;strokeColor=#36393d;" parent="1" vertex="1">
          <mxGeometry x="-1263" y="1015.42" width="30" height="60" as="geometry" />
        </mxCell>
        <mxCell id="0SK4Kan7_9GHJnEtyxV1-53" value="Выйти из аккаунта" style="ellipse;whiteSpace=wrap;html=1;fillColor=#d5e8d4;gradientDirection=east;strokeColor=#82b366;" parent="1" vertex="1">
          <mxGeometry x="-1306.94" y="1240.1399999999999" width="120" height="40" as="geometry" />
        </mxCell>
        <mxCell id="0SK4Kan7_9GHJnEtyxV1-54" value="Войти в аккаунт" style="ellipse;whiteSpace=wrap;html=1;fillColor=#ffe6cc;strokeColor=#d79b00;gradientDirection=east;" parent="1" vertex="1">
          <mxGeometry x="-1760" y="704.86" width="120" height="40" as="geometry" />
        </mxCell>
        <mxCell id="0SK4Kan7_9GHJnEtyxV1-55" value="" style="endArrow=classic;html=1;rounded=0;entryX=1;entryY=1;entryDx=0;entryDy=0;" parent="1" edge="1">
          <mxGeometry width="50" height="50" relative="1" as="geometry">
            <mxPoint x="-1405" y="825.1400000000001" as="sourcePoint" />
            <mxPoint x="-1482.5735931288073" y="799.2821356237312" as="targetPoint" />
          </mxGeometry>
        </mxCell>
        <mxCell id="0SK4Kan7_9GHJnEtyxV1-56" value="Просмотреть профиль" style="ellipse;whiteSpace=wrap;html=1;fillColor=#dae8fc;strokeColor=#6c8ebf;" parent="1" vertex="1">
          <mxGeometry x="-1098" y="1045.42" width="120" height="40" as="geometry" />
        </mxCell>
        <mxCell id="0SK4Kan7_9GHJnEtyxV1-57" value="" style="endArrow=classic;html=1;rounded=0;entryX=0;entryY=0.5;entryDx=0;entryDy=0;" parent="1" edge="1">
          <mxGeometry width="50" height="50" relative="1" as="geometry">
            <mxPoint x="-1266.94" y="1085.42" as="sourcePoint" />
            <mxPoint x="-1186.94" y="1085.42" as="targetPoint" />
          </mxGeometry>
        </mxCell>
        <mxCell id="0SK4Kan7_9GHJnEtyxV1-58" value="" style="endArrow=classic;html=1;rounded=0;exitX=1;exitY=1;exitDx=0;exitDy=0;entryX=0.3;entryY=0;entryDx=0;entryDy=0;entryPerimeter=0;fillColor=#dae8fc;strokeColor=#000000;" parent="1" source="0SK4Kan7_9GHJnEtyxV1-31" target="0SK4Kan7_9GHJnEtyxV1-59" edge="1">
          <mxGeometry width="50" height="50" relative="1" as="geometry">
            <mxPoint x="-1043.06" y="825.42" as="sourcePoint" />
            <mxPoint x="-963.06" y="855.42" as="targetPoint" />
          </mxGeometry>
        </mxCell>
        <mxCell id="0SK4Kan7_9GHJnEtyxV1-59" value="Оставить отзыв о заказе" style="ellipse;whiteSpace=wrap;html=1;fillColor=#dae8fc;strokeColor=#6c8ebf;" parent="1" vertex="1">
          <mxGeometry x="-888" y="1015.42" width="120" height="40" as="geometry" />
        </mxCell>
        <mxCell id="0SK4Kan7_9GHJnEtyxV1-63" value="" style="endArrow=classic;html=1;rounded=0;exitX=1;exitY=0.5;exitDx=0;exitDy=0;entryX=0;entryY=0;entryDx=0;entryDy=0;" parent="1" source="0SK4Kan7_9GHJnEtyxV1-15" target="0SK4Kan7_9GHJnEtyxV1-13" edge="1">
          <mxGeometry width="50" height="50" relative="1" as="geometry">
            <mxPoint x="-1294" y="763.1400000000001" as="sourcePoint" />
            <mxPoint x="-1179" y="724.1400000000001" as="targetPoint" />
          </mxGeometry>
        </mxCell>
        <mxCell id="0SK4Kan7_9GHJnEtyxV1-64" value="" style="endArrow=classic;html=1;rounded=0;entryX=0;entryY=0;entryDx=0;entryDy=0;" parent="1" target="0SK4Kan7_9GHJnEtyxV1-53" edge="1">
          <mxGeometry width="50" height="50" relative="1" as="geometry">
            <mxPoint x="-1321.94" y="1190.1399999999999" as="sourcePoint" />
            <mxPoint x="-1179.94" y="1256.1399999999999" as="targetPoint" />
          </mxGeometry>
        </mxCell>
        <mxCell id="0SK4Kan7_9GHJnEtyxV1-69" value="Просмотр списка блюд" style="ellipse;whiteSpace=wrap;html=1;fillColor=#f8cecc;strokeColor=#b85450;" parent="1" vertex="1">
          <mxGeometry x="-490" y="409.44" width="120" height="40" as="geometry" />
        </mxCell>
        <mxCell id="0SK4Kan7_9GHJnEtyxV1-70" value="Выбор категории блюда" style="ellipse;whiteSpace=wrap;html=1;fillColor=#f8cecc;strokeColor=#b85450;" parent="1" vertex="1">
          <mxGeometry x="-640" y="329.44" width="120" height="40" as="geometry" />
        </mxCell>
        <mxCell id="0SK4Kan7_9GHJnEtyxV1-74" value="" style="endArrow=classic;html=1;rounded=0;exitX=0;exitY=0.5;exitDx=0;exitDy=0;" parent="1" source="0SK4Kan7_9GHJnEtyxV1-69" edge="1">
          <mxGeometry width="50" height="50" relative="1" as="geometry">
            <mxPoint x="-659" y="685" as="sourcePoint" />
            <mxPoint x="-540" y="420" as="targetPoint" />
          </mxGeometry>
        </mxCell>
        <mxCell id="0SK4Kan7_9GHJnEtyxV1-82" value="" style="endArrow=classic;html=1;rounded=0;entryX=0.925;entryY=0.214;entryDx=0;entryDy=0;entryPerimeter=0;" parent="1" target="0SK4Kan7_9GHJnEtyxV1-69" edge="1">
          <mxGeometry width="50" height="50" relative="1" as="geometry">
            <mxPoint x="-260" y="360" as="sourcePoint" />
            <mxPoint x="-195" y="448" as="targetPoint" />
          </mxGeometry>
        </mxCell>
        <mxCell id="0SK4Kan7_9GHJnEtyxV1-84" value="Просмотр списка сотрудников кухни" style="ellipse;whiteSpace=wrap;html=1;fillColor=#ffe6cc;strokeColor=#d79b00;" parent="1" vertex="1">
          <mxGeometry x="-1815" y="905.14" width="120" height="40" as="geometry" />
        </mxCell>
        <mxCell id="0SK4Kan7_9GHJnEtyxV1-85" value="Регистрация" style="ellipse;whiteSpace=wrap;html=1;fillColor=#f5f5f5;fontColor=#333333;strokeColor=#666666;" parent="1" vertex="1">
          <mxGeometry x="-1585" y="694.58" width="120" height="40" as="geometry" />
        </mxCell>
        <mxCell id="0SK4Kan7_9GHJnEtyxV1-86" value="Просмотр заказов, связанных с кухней, в которой работает сотрудник" style="ellipse;whiteSpace=wrap;html=1;fillColor=#ffe6cc;strokeColor=#d79b00;" parent="1" vertex="1">
          <mxGeometry x="-1795" y="980.14" width="190" height="65" as="geometry" />
        </mxCell>
        <mxCell id="0SK4Kan7_9GHJnEtyxV1-88" value="Изменения состояния заказа" style="ellipse;whiteSpace=wrap;html=1;fillColor=#ffe6cc;strokeColor=#d79b00;" parent="1" vertex="1">
          <mxGeometry x="-1845" y="1135.1399999999999" width="120" height="40" as="geometry" />
        </mxCell>
        <mxCell id="0SK4Kan7_9GHJnEtyxV1-89" value="Просмотр заказов, связанных с курьером" style="ellipse;whiteSpace=wrap;html=1;fillColor=#d5e8d4;strokeColor=#82b366;gradientColor=none;" parent="1" vertex="1">
          <mxGeometry x="-1511.94" y="1230.1399999999999" width="150" height="40" as="geometry" />
        </mxCell>
        <mxCell id="0SK4Kan7_9GHJnEtyxV1-90" value="Демонстрация заказов определенного состояния" style="ellipse;whiteSpace=wrap;html=1;fillColor=#d5e8d4;strokeColor=#82b366;" parent="1" vertex="1">
          <mxGeometry x="-1521.94" y="1310.1399999999999" width="170" height="40" as="geometry" />
        </mxCell>
        <mxCell id="0SK4Kan7_9GHJnEtyxV1-93" value="" style="endArrow=classic;html=1;rounded=0;entryX=0.76;entryY=0.05;entryDx=0;entryDy=0;entryPerimeter=0;" parent="1" target="0SK4Kan7_9GHJnEtyxV1-89" edge="1">
          <mxGeometry width="50" height="50" relative="1" as="geometry">
            <mxPoint x="-1371.94" y="1180.1399999999999" as="sourcePoint" />
            <mxPoint x="-1263.94" y="1256.1399999999999" as="targetPoint" />
          </mxGeometry>
        </mxCell>
        <mxCell id="0SK4Kan7_9GHJnEtyxV1-94" value="Просмотр детальной информации о заказе" style="ellipse;whiteSpace=wrap;html=1;fillColor=#ffe6cc;strokeColor=#d79b00;" parent="1" vertex="1">
          <mxGeometry x="-1915" y="1040.1399999999999" width="140" height="50" as="geometry" />
        </mxCell>
        <mxCell id="0SK4Kan7_9GHJnEtyxV1-95" value="" style="endArrow=classic;html=1;rounded=0;entryX=0.5;entryY=0;entryDx=0;entryDy=0;exitX=0;exitY=0.5;exitDx=0;exitDy=0;" parent="1" source="0SK4Kan7_9GHJnEtyxV1-86" target="0SK4Kan7_9GHJnEtyxV1-94" edge="1">
          <mxGeometry width="50" height="50" relative="1" as="geometry">
            <mxPoint x="-1795" y="1010.14" as="sourcePoint" />
            <mxPoint x="-1671" y="1002.14" as="targetPoint" />
          </mxGeometry>
        </mxCell>
        <mxCell id="0SK4Kan7_9GHJnEtyxV1-97" value="" style="endArrow=classic;html=1;rounded=0;entryX=0.663;entryY=0.015;entryDx=0;entryDy=0;entryPerimeter=0;" parent="1" target="0SK4Kan7_9GHJnEtyxV1-86" edge="1">
          <mxGeometry width="50" height="50" relative="1" as="geometry">
            <mxPoint x="-1635" y="955.14" as="sourcePoint" />
            <mxPoint x="-1527" y="859.14" as="targetPoint" />
            <Array as="points" />
          </mxGeometry>
        </mxCell>
        <mxCell id="0SK4Kan7_9GHJnEtyxV1-98" value="Демонстрация заказов определенного состояния" style="ellipse;whiteSpace=wrap;html=1;fillColor=#ffe6cc;strokeColor=#d79b00;" parent="1" vertex="1">
          <mxGeometry x="-1745" y="1090.1399999999999" width="170" height="40" as="geometry" />
        </mxCell>
        <mxCell id="0SK4Kan7_9GHJnEtyxV1-101" value="" style="endArrow=classic;html=1;rounded=0;entryX=1;entryY=0.5;entryDx=0;entryDy=0;" parent="1" target="0SK4Kan7_9GHJnEtyxV1-84" edge="1">
          <mxGeometry width="50" height="50" relative="1" as="geometry">
            <mxPoint x="-1615" y="905.14" as="sourcePoint" />
            <mxPoint x="-1659" y="991.14" as="targetPoint" />
            <Array as="points" />
          </mxGeometry>
        </mxCell>
        <mxCell id="0SK4Kan7_9GHJnEtyxV1-105" value="" style="endArrow=classic;html=1;rounded=0;entryX=1;entryY=1;entryDx=0;entryDy=0;" parent="1" target="0SK4Kan7_9GHJnEtyxV1-85" edge="1">
          <mxGeometry width="50" height="50" relative="1" as="geometry">
            <mxPoint x="-1395" y="815.1400000000001" as="sourcePoint" />
            <mxPoint x="-1475" y="905.14" as="targetPoint" />
          </mxGeometry>
        </mxCell>
        <mxCell id="0SK4Kan7_9GHJnEtyxV1-106" value="" style="endArrow=classic;html=1;rounded=0;entryX=0.95;entryY=0.725;entryDx=0;entryDy=0;entryPerimeter=0;" parent="1" target="0SK4Kan7_9GHJnEtyxV1-107" edge="1">
          <mxGeometry width="50" height="50" relative="1" as="geometry">
            <mxPoint x="-250" y="320" as="sourcePoint" />
            <mxPoint x="-330" y="260" as="targetPoint" />
          </mxGeometry>
        </mxCell>
        <mxCell id="0SK4Kan7_9GHJnEtyxV1-107" value="Просмотр статистики сервиса" style="ellipse;whiteSpace=wrap;html=1;fillColor=#ffcc99;strokeColor=#36393d;" parent="1" vertex="1">
          <mxGeometry x="-455" y="289.44" width="120" height="40" as="geometry" />
        </mxCell>
        <mxCell id="0SK4Kan7_9GHJnEtyxV1-108" value="Выбор запроса статистики" style="ellipse;whiteSpace=wrap;html=1;fillColor=#ffcc99;strokeColor=#36393d;" parent="1" vertex="1">
          <mxGeometry x="-640" y="253.57999999999998" width="120" height="40" as="geometry" />
        </mxCell>
        <mxCell id="0SK4Kan7_9GHJnEtyxV1-113" value="" style="endArrow=classic;html=1;rounded=0;entryX=0.627;entryY=0.988;entryDx=0;entryDy=0;entryPerimeter=0;" parent="1" target="0SK4Kan7_9GHJnEtyxV1-115" edge="1">
          <mxGeometry width="50" height="50" relative="1" as="geometry">
            <mxPoint x="-240" y="290" as="sourcePoint" />
            <mxPoint x="-180" y="210" as="targetPoint" />
          </mxGeometry>
        </mxCell>
        <mxCell id="0SK4Kan7_9GHJnEtyxV1-115" value="Просмотр заказов, зарегистрированных в системе" style="ellipse;whiteSpace=wrap;html=1;fillColor=#ffcc99;strokeColor=#36393d;" parent="1" vertex="1">
          <mxGeometry x="-377" y="173.58" width="150" height="50" as="geometry" />
        </mxCell>
        <mxCell id="0SK4Kan7_9GHJnEtyxV1-116" value="Демонстрация заказов определенного состояния" style="ellipse;whiteSpace=wrap;html=1;fillColor=#ffcc99;strokeColor=#36393d;" parent="1" vertex="1">
          <mxGeometry x="-560" y="113.58" width="170" height="40" as="geometry" />
        </mxCell>
        <mxCell id="0SK4Kan7_9GHJnEtyxV1-120" value="Изменения состояния заказа" style="ellipse;whiteSpace=wrap;html=1;fillColor=#ffcc99;strokeColor=#36393d;" parent="1" vertex="1">
          <mxGeometry x="-260" y="13.579999999999998" width="120" height="40" as="geometry" />
        </mxCell>
        <mxCell id="0SK4Kan7_9GHJnEtyxV1-121" value="Просмотр детальной информации о заказе" style="ellipse;whiteSpace=wrap;html=1;fillColor=#ffcc99;strokeColor=#36393d;" parent="1" vertex="1">
          <mxGeometry x="-357" y="83.58" width="140" height="50" as="geometry" />
        </mxCell>
        <mxCell id="0SK4Kan7_9GHJnEtyxV1-123" value="" style="endArrow=classic;html=1;rounded=0;entryX=0.386;entryY=1;entryDx=0;entryDy=0;entryPerimeter=0;exitX=0.5;exitY=0;exitDx=0;exitDy=0;" parent="1" source="0SK4Kan7_9GHJnEtyxV1-115" target="0SK4Kan7_9GHJnEtyxV1-121" edge="1">
          <mxGeometry width="50" height="50" relative="1" as="geometry">
            <mxPoint x="-357" y="323.58" as="sourcePoint" />
            <mxPoint x="-299" y="234.58" as="targetPoint" />
          </mxGeometry>
        </mxCell>
        <mxCell id="0SK4Kan7_9GHJnEtyxV1-127" value="Отменить заказ" style="ellipse;whiteSpace=wrap;html=1;fillColor=#ffcc99;strokeColor=#36393d;" parent="1" vertex="1">
          <mxGeometry x="-482" y="53.58" width="120" height="40" as="geometry" />
        </mxCell>
        <mxCell id="0SK4Kan7_9GHJnEtyxV1-128" value="Отменить заказанный продукт" style="ellipse;whiteSpace=wrap;html=1;fillColor=#ffcc99;strokeColor=#36393d;" parent="1" vertex="1">
          <mxGeometry x="-390" y="-20" width="120" height="50" as="geometry" />
        </mxCell>
        <mxCell id="0SK4Kan7_9GHJnEtyxV1-131" value="Просмотр списка пользователей" style="ellipse;whiteSpace=wrap;html=1;fillColor=#f8cecc;strokeColor=#b85450;" parent="1" vertex="1">
          <mxGeometry x="-160" y="176.42" width="130" height="43.58" as="geometry" />
        </mxCell>
        <mxCell id="0SK4Kan7_9GHJnEtyxV1-132" value="Просмотр списка блюд, доступных для редактирования" style="ellipse;whiteSpace=wrap;html=1;fillColor=#f8cecc;strokeColor=#b85450;" parent="1" vertex="1">
          <mxGeometry x="-100" y="289.44" width="150" height="60" as="geometry" />
        </mxCell>
        <mxCell id="0SK4Kan7_9GHJnEtyxV1-133" value="Поиск заказов по ID и логину клиента" style="ellipse;whiteSpace=wrap;html=1;fillColor=#ffcc99;strokeColor=#36393d;" parent="1" vertex="1">
          <mxGeometry x="-630" y="160" width="160" height="40" as="geometry" />
        </mxCell>
        <mxCell id="0SK4Kan7_9GHJnEtyxV1-136" value="" style="endArrow=classic;html=1;rounded=0;entryX=0.312;entryY=0.942;entryDx=0;entryDy=0;entryPerimeter=0;" parent="1" target="0SK4Kan7_9GHJnEtyxV1-131" edge="1">
          <mxGeometry width="50" height="50" relative="1" as="geometry">
            <mxPoint x="-210" y="300" as="sourcePoint" />
            <mxPoint x="-273" y="233" as="targetPoint" />
          </mxGeometry>
        </mxCell>
        <mxCell id="0SK4Kan7_9GHJnEtyxV1-137" value="" style="endArrow=classic;html=1;rounded=0;entryX=0;entryY=0.5;entryDx=0;entryDy=0;" parent="1" target="0SK4Kan7_9GHJnEtyxV1-132" edge="1">
          <mxGeometry width="50" height="50" relative="1" as="geometry">
            <mxPoint x="-200" y="340" as="sourcePoint" />
            <mxPoint x="-159" y="268" as="targetPoint" />
          </mxGeometry>
        </mxCell>
        <mxCell id="0SK4Kan7_9GHJnEtyxV1-139" value="Поиск блюд по имени и описанию" style="ellipse;whiteSpace=wrap;html=1;fillColor=#f8cecc;strokeColor=#b85450;" parent="1" vertex="1">
          <mxGeometry x="10" y="430" width="120" height="40" as="geometry" />
        </mxCell>
        <mxCell id="0SK4Kan7_9GHJnEtyxV1-140" value="Просмотр детальной информации о блюде" style="ellipse;whiteSpace=wrap;html=1;fillColor=#f8cecc;strokeColor=#b85450;" parent="1" vertex="1">
          <mxGeometry x="140" y="379.72" width="150" height="40" as="geometry" />
        </mxCell>
        <mxCell id="0SK4Kan7_9GHJnEtyxV1-141" value="" style="endArrow=classic;html=1;rounded=0;exitX=1;exitY=1;exitDx=0;exitDy=0;" parent="1" source="0SK4Kan7_9GHJnEtyxV1-132" edge="1">
          <mxGeometry width="50" height="50" relative="1" as="geometry">
            <mxPoint x="422" y="309.56" as="sourcePoint" />
            <mxPoint x="140" y="400" as="targetPoint" />
          </mxGeometry>
        </mxCell>
        <mxCell id="0SK4Kan7_9GHJnEtyxV1-146" value="Скрыть/показать блюдо для пользователей" style="ellipse;whiteSpace=wrap;html=1;fillColor=#f8cecc;strokeColor=#b85450;" parent="1" vertex="1">
          <mxGeometry x="165" y="319.44" width="150" height="40" as="geometry" />
        </mxCell>
        <mxCell id="0SK4Kan7_9GHJnEtyxV1-148" value="Удалить/восстановить блюдо" style="ellipse;whiteSpace=wrap;html=1;fillColor=#f8cecc;strokeColor=#b85450;" parent="1" vertex="1">
          <mxGeometry x="165" y="249.44" width="150" height="40" as="geometry" />
        </mxCell>
        <mxCell id="0SK4Kan7_9GHJnEtyxV1-157" value="Назначить/убрать роль для пользователя" style="ellipse;whiteSpace=wrap;html=1;fillColor=#f8cecc;strokeColor=#b85450;" parent="1" vertex="1">
          <mxGeometry x="-105" y="53.58000000000001" width="150" height="40" as="geometry" />
        </mxCell>
        <mxCell id="0SK4Kan7_9GHJnEtyxV1-158" value="" style="endArrow=classic;html=1;rounded=0;exitX=0.742;exitY=0.033;exitDx=0;exitDy=0;exitPerimeter=0;entryX=0.048;entryY=0.779;entryDx=0;entryDy=0;entryPerimeter=0;" parent="1" source="0SK4Kan7_9GHJnEtyxV1-132" target="0SK4Kan7_9GHJnEtyxV1-159" edge="1">
          <mxGeometry width="50" height="50" relative="1" as="geometry">
            <mxPoint x="88" y="299" as="sourcePoint" />
            <mxPoint x="210" y="140" as="targetPoint" />
          </mxGeometry>
        </mxCell>
        <mxCell id="0SK4Kan7_9GHJnEtyxV1-159" value="Изменить данные о выбранном блюде" style="ellipse;whiteSpace=wrap;html=1;fillColor=#f8cecc;strokeColor=#b85450;" parent="1" vertex="1">
          <mxGeometry x="195" y="180" width="150" height="40" as="geometry" />
        </mxCell>
        <mxCell id="0SK4Kan7_9GHJnEtyxV1-161" value="Заблокировать/разблокировать пользователя" style="ellipse;whiteSpace=wrap;html=1;fillColor=#f8cecc;strokeColor=#b85450;" parent="1" vertex="1">
          <mxGeometry x="6" y="83.58" width="150" height="53.58" as="geometry" />
        </mxCell>
        <mxCell id="0SK4Kan7_9GHJnEtyxV1-165" value="" style="endArrow=classic;html=1;rounded=0;exitX=0.5;exitY=0;exitDx=0;exitDy=0;entryX=0;entryY=1;entryDx=0;entryDy=0;" parent="1" source="0SK4Kan7_9GHJnEtyxV1-132" target="0SK4Kan7_9GHJnEtyxV1-167" edge="1">
          <mxGeometry width="50" height="50" relative="1" as="geometry">
            <mxPoint x="88" y="299" as="sourcePoint" />
            <mxPoint x="52.39000000000033" y="220.8699999999999" as="targetPoint" />
          </mxGeometry>
        </mxCell>
        <mxCell id="0SK4Kan7_9GHJnEtyxV1-167" value="Создать новое блюдо" style="ellipse;whiteSpace=wrap;html=1;fillColor=#f8cecc;strokeColor=#b85450;" parent="1" vertex="1">
          <mxGeometry x="170" y="93.57999999999997" width="120" height="40" as="geometry" />
        </mxCell>
        <mxCell id="h86G1SmnbexspQALYNn9-1" value="" style="endArrow=classic;html=1;rounded=0;exitX=0.036;exitY=0.667;exitDx=0;exitDy=0;entryX=1;entryY=0.5;entryDx=0;entryDy=0;exitPerimeter=0;" parent="1" source="0SK4Kan7_9GHJnEtyxV1-89" target="y4efmcB2x4hrbWVvXJeR-2" edge="1">
          <mxGeometry width="50" height="50" relative="1" as="geometry">
            <mxPoint x="-1871.94" y="895.14" as="sourcePoint" />
            <mxPoint x="-1691.94" y="990.14" as="targetPoint" />
          </mxGeometry>
        </mxCell>
        <mxCell id="h86G1SmnbexspQALYNn9-2" value="Изменения состояния заказа" style="ellipse;whiteSpace=wrap;html=1;fillColor=#d5e8d4;strokeColor=#82b366;" parent="1" vertex="1">
          <mxGeometry x="-1681.94" y="1180.1399999999999" width="120" height="40" as="geometry" />
        </mxCell>
        <mxCell id="h86G1SmnbexspQALYNn9-3" value="Просмотр заказов, зарегистрированных в системе" style="ellipse;whiteSpace=wrap;html=1;fillColor=#f8cecc;strokeColor=#b85450;" parent="1" vertex="1">
          <mxGeometry x="-377" y="173.58" width="150" height="50" as="geometry" />
        </mxCell>
        <mxCell id="h86G1SmnbexspQALYNn9-4" value="Просмотр статистики сервиса" style="ellipse;whiteSpace=wrap;html=1;fillColor=#f8cecc;strokeColor=#b85450;" parent="1" vertex="1">
          <mxGeometry x="-455" y="289.44" width="120" height="40" as="geometry" />
        </mxCell>
        <mxCell id="h86G1SmnbexspQALYNn9-6" value="Выбор запроса статистики" style="ellipse;whiteSpace=wrap;html=1;fillColor=#f8cecc;strokeColor=#b85450;" parent="1" vertex="1">
          <mxGeometry x="-640" y="253.57999999999998" width="120" height="40" as="geometry" />
        </mxCell>
        <mxCell id="h86G1SmnbexspQALYNn9-7" value="Поиск заказов по ID и логину клиента" style="ellipse;whiteSpace=wrap;html=1;fillColor=#f8cecc;strokeColor=#b85450;" parent="1" vertex="1">
          <mxGeometry x="-630" y="160" width="160" height="40" as="geometry" />
        </mxCell>
        <mxCell id="h86G1SmnbexspQALYNn9-8" value="Демонстрация заказов определенного состояния" style="ellipse;whiteSpace=wrap;html=1;fillColor=#f8cecc;strokeColor=#b85450;" parent="1" vertex="1">
          <mxGeometry x="-560" y="113.58" width="170" height="40" as="geometry" />
        </mxCell>
        <mxCell id="h86G1SmnbexspQALYNn9-9" value="Отменить заказ" style="ellipse;whiteSpace=wrap;html=1;fillColor=#f8cecc;strokeColor=#b85450;" parent="1" vertex="1">
          <mxGeometry x="-482" y="53.58" width="120" height="40" as="geometry" />
        </mxCell>
        <mxCell id="h86G1SmnbexspQALYNn9-10" value="Просмотр детальной информации о заказе" style="ellipse;whiteSpace=wrap;html=1;fillColor=#f8cecc;strokeColor=#b85450;" parent="1" vertex="1">
          <mxGeometry x="-357" y="83.58" width="140" height="50" as="geometry" />
        </mxCell>
        <mxCell id="h86G1SmnbexspQALYNn9-11" value="Отменить заказанный продукт" style="ellipse;whiteSpace=wrap;html=1;fillColor=#f8cecc;strokeColor=#b85450;" parent="1" vertex="1">
          <mxGeometry x="-390" y="-20" width="120" height="50" as="geometry" />
        </mxCell>
        <mxCell id="h86G1SmnbexspQALYNn9-12" value="Изменения состояния заказа" style="ellipse;whiteSpace=wrap;html=1;fillColor=#f8cecc;strokeColor=#b85450;" parent="1" vertex="1">
          <mxGeometry x="-260" y="13.579999999999998" width="120" height="40" as="geometry" />
        </mxCell>
        <mxCell id="h86G1SmnbexspQALYNn9-13" value="Поиск пользователя по логину и имени" style="ellipse;whiteSpace=wrap;html=1;fillColor=#f8cecc;strokeColor=#b85450;" parent="1" vertex="1">
          <mxGeometry x="-200" y="97.16000000000001" width="150" height="40" as="geometry" />
        </mxCell>
        <mxCell id="h86G1SmnbexspQALYNn9-14" value="Просмотр детальной информации о блюде" style="ellipse;whiteSpace=wrap;html=1;fillColor=#f8cecc;strokeColor=#b85450;" parent="1" vertex="1">
          <mxGeometry x="-680" y="400" width="140" height="40" as="geometry" />
        </mxCell>
        <mxCell id="h86G1SmnbexspQALYNn9-15" value="Поиск блюд по имени и описанию" style="ellipse;whiteSpace=wrap;html=1;fillColor=#f8cecc;strokeColor=#b85450;" parent="1" vertex="1">
          <mxGeometry x="-625" y="470" width="120" height="40" as="geometry" />
        </mxCell>
        <mxCell id="h86G1SmnbexspQALYNn9-16" value="Выйти из аккаунта" style="ellipse;whiteSpace=wrap;html=1;fillColor=#ffe6cc;strokeColor=#d79b00;" parent="1" vertex="1">
          <mxGeometry x="-1830" y="765.14" width="120" height="40" as="geometry" />
        </mxCell>
        <mxCell id="u17qX-ooN2I0qwLCw1Ww-2" value="Указать причину отмены" style="ellipse;whiteSpace=wrap;html=1;fillColor=#dae8fc;strokeColor=#6c8ebf;" parent="1" vertex="1">
          <mxGeometry x="-948" y="1075.42" width="120" height="40" as="geometry" />
        </mxCell>
        <mxCell id="u17qX-ooN2I0qwLCw1Ww-3" value="Адрес доставки" style="ellipse;whiteSpace=wrap;html=1;fillColor=#f5f5f5;fontColor=#333333;strokeColor=#666666;" parent="1" vertex="1">
          <mxGeometry x="-1075" y="725.1400000000001" width="120" height="40" as="geometry" />
        </mxCell>
        <mxCell id="u17qX-ooN2I0qwLCw1Ww-4" value="Номер телефона" style="ellipse;whiteSpace=wrap;html=1;fillColor=#f5f5f5;fontColor=#333333;strokeColor=#666666;" parent="1" vertex="1">
          <mxGeometry x="-985" y="765.1400000000001" width="120" height="40" as="geometry" />
        </mxCell>
        <mxCell id="u17qX-ooN2I0qwLCw1Ww-8" value="&quot;include&quot;" style="endArrow=open;startArrow=none;endFill=0;startFill=0;endSize=8;html=1;verticalAlign=bottom;dashed=1;labelBackgroundColor=none;rounded=0;exitX=0.242;exitY=0.036;exitDx=0;exitDy=0;exitPerimeter=0;entryX=0.5;entryY=1;entryDx=0;entryDy=0;" parent="1" source="u17qX-ooN2I0qwLCw1Ww-2" target="0SK4Kan7_9GHJnEtyxV1-35" edge="1">
          <mxGeometry x="-0.3158" y="-1" width="160" relative="1" as="geometry">
            <mxPoint x="-1238" y="1005.42" as="sourcePoint" />
            <mxPoint x="-1078" y="1005.42" as="targetPoint" />
            <mxPoint as="offset" />
          </mxGeometry>
        </mxCell>
        <mxCell id="u17qX-ooN2I0qwLCw1Ww-9" value="&quot;include&quot;" style="endArrow=open;startArrow=none;endFill=0;startFill=0;endSize=8;html=1;verticalAlign=bottom;dashed=1;labelBackgroundColor=none;rounded=0;exitX=0.224;exitY=0.971;exitDx=0;exitDy=0;exitPerimeter=0;entryX=0.5;entryY=0;entryDx=0;entryDy=0;" parent="1" source="u17qX-ooN2I0qwLCw1Ww-3" target="0SK4Kan7_9GHJnEtyxV1-23" edge="1">
          <mxGeometry x="-0.3158" y="-1" width="160" relative="1" as="geometry">
            <mxPoint x="-976" y="1066.1399999999999" as="sourcePoint" />
            <mxPoint x="-1005" y="1005.14" as="targetPoint" />
            <mxPoint as="offset" />
          </mxGeometry>
        </mxCell>
        <mxCell id="u17qX-ooN2I0qwLCw1Ww-10" value="&quot;include&quot;" style="endArrow=open;startArrow=none;endFill=0;startFill=0;endSize=8;html=1;verticalAlign=bottom;dashed=1;labelBackgroundColor=none;rounded=0;exitX=0;exitY=0.5;exitDx=0;exitDy=0;entryX=1;entryY=0;entryDx=0;entryDy=0;" parent="1" source="u17qX-ooN2I0qwLCw1Ww-4" target="0SK4Kan7_9GHJnEtyxV1-23" edge="1">
          <mxGeometry x="0.2564" y="-7" width="160" relative="1" as="geometry">
            <mxPoint x="-1038" y="774.1400000000001" as="sourcePoint" />
            <mxPoint x="-1059" y="815.1400000000001" as="targetPoint" />
            <mxPoint as="offset" />
          </mxGeometry>
        </mxCell>
        <mxCell id="7M1A2IwBAG58vpG92mjd-3" value="" style="endArrow=classic;html=1;rounded=0;" parent="1" edge="1">
          <mxGeometry width="50" height="50" relative="1" as="geometry">
            <mxPoint x="-1186.94" y="1109" as="sourcePoint" />
            <mxPoint x="-1118.94" y="1139" as="targetPoint" />
            <Array as="points" />
          </mxGeometry>
        </mxCell>
        <mxCell id="7M1A2IwBAG58vpG92mjd-4" value="Выйти из аккаунта" style="ellipse;whiteSpace=wrap;html=1;fillColor=#dae8fc;gradientDirection=east;strokeColor=#6c8ebf;" parent="1" vertex="1">
          <mxGeometry x="-1124.94" y="1129" width="120" height="40" as="geometry" />
        </mxCell>
        <mxCell id="7M1A2IwBAG58vpG92mjd-5" value="Анонимный клиент" style="shape=umlActor;verticalLabelPosition=bottom;verticalAlign=top;html=1;outlineConnect=0;fillColor=#eeeeee;strokeColor=#36393d;" parent="1" vertex="1">
          <mxGeometry x="-1261.06" y="885.42" width="30" height="60" as="geometry" />
        </mxCell>
        <mxCell id="7M1A2IwBAG58vpG92mjd-6" value="" style="endArrow=block;html=1;rounded=0;align=center;verticalAlign=bottom;endFill=0;labelBackgroundColor=none;endSize=8;fontSize=10;" parent="1" edge="1">
          <mxGeometry relative="1" as="geometry">
            <mxPoint x="-1243.06" y="965.42" as="sourcePoint" />
            <mxPoint x="-1243.06" y="1005.42" as="targetPoint" />
          </mxGeometry>
        </mxCell>
        <mxCell id="7M1A2IwBAG58vpG92mjd-7" value="" style="resizable=0;html=1;align=center;verticalAlign=top;labelBackgroundColor=none;fontSize=10;" parent="7M1A2IwBAG58vpG92mjd-6" connectable="0" vertex="1">
          <mxGeometry relative="1" as="geometry">
            <mxPoint x="119" y="144" as="offset" />
          </mxGeometry>
        </mxCell>
        <mxCell id="7M1A2IwBAG58vpG92mjd-8" value="Войти в аккаунт" style="ellipse;whiteSpace=wrap;html=1;fillColor=#f5f5f5;fontColor=#333333;strokeColor=#666666;gradientDirection=east;" parent="1" vertex="1">
          <mxGeometry x="-1605" y="775.4200000000001" width="120" height="40" as="geometry" />
        </mxCell>
        <mxCell id="7M1A2IwBAG58vpG92mjd-9" value="&quot;extend&quot;" style="endArrow=open;startArrow=none;endFill=0;startFill=0;endSize=8;html=1;verticalAlign=bottom;dashed=1;labelBackgroundColor=none;rounded=0;exitX=0;exitY=0.5;exitDx=0;exitDy=0;entryX=1;entryY=0.5;entryDx=0;entryDy=0;" parent="1" source="0SK4Kan7_9GHJnEtyxV1-10" target="0SK4Kan7_9GHJnEtyxV1-9" edge="1">
          <mxGeometry x="-0.3182" y="-1" width="160" relative="1" as="geometry">
            <mxPoint x="-1214" y="745.4200000000001" as="sourcePoint" />
            <mxPoint x="-1235" y="786.4200000000001" as="targetPoint" />
            <mxPoint as="offset" />
          </mxGeometry>
        </mxCell>
        <mxCell id="7M1A2IwBAG58vpG92mjd-10" value="&quot;extend&quot;" style="endArrow=open;startArrow=none;endFill=0;startFill=0;endSize=8;html=1;verticalAlign=bottom;dashed=1;labelBackgroundColor=none;rounded=0;exitX=0.718;exitY=0.945;exitDx=0;exitDy=0;entryX=0.219;entryY=0.05;entryDx=0;entryDy=0;exitPerimeter=0;entryPerimeter=0;" parent="1" source="0SK4Kan7_9GHJnEtyxV1-12" target="0SK4Kan7_9GHJnEtyxV1-9" edge="1">
          <mxGeometry x="-0.0399" y="-4" width="160" relative="1" as="geometry">
            <mxPoint x="-1225" y="795.4200000000001" as="sourcePoint" />
            <mxPoint x="-1289" y="775.4200000000001" as="targetPoint" />
            <mxPoint as="offset" />
          </mxGeometry>
        </mxCell>
        <mxCell id="7M1A2IwBAG58vpG92mjd-11" value="Войти в аккаунт" style="ellipse;whiteSpace=wrap;html=1;fillColor=#d5e8d4;strokeColor=#82b366;gradientDirection=east;" parent="1" vertex="1">
          <mxGeometry x="-1536.94" y="1160.1399999999999" width="120" height="40" as="geometry" />
        </mxCell>
        <mxCell id="7M1A2IwBAG58vpG92mjd-12" value="&quot;extend&quot;" style="endArrow=open;startArrow=none;endFill=0;startFill=0;endSize=8;html=1;verticalAlign=bottom;dashed=1;labelBackgroundColor=none;rounded=0;exitX=0.5;exitY=0;exitDx=0;exitDy=0;" parent="1" source="0SK4Kan7_9GHJnEtyxV1-90" edge="1">
          <mxGeometry x="-0.3182" y="-1" width="160" relative="1" as="geometry">
            <mxPoint x="-361.94" y="620.14" as="sourcePoint" />
            <mxPoint x="-1431.94" y="1270.1399999999999" as="targetPoint" />
            <mxPoint as="offset" />
          </mxGeometry>
        </mxCell>
        <mxCell id="7M1A2IwBAG58vpG92mjd-14" value="" style="endArrow=classic;html=1;rounded=0;entryX=1;entryY=0.5;entryDx=0;entryDy=0;" parent="1" target="7M1A2IwBAG58vpG92mjd-11" edge="1">
          <mxGeometry width="50" height="50" relative="1" as="geometry">
            <mxPoint x="-1371.94" y="1140.1399999999999" as="sourcePoint" />
            <mxPoint x="-1387.94" y="1242.1399999999999" as="targetPoint" />
          </mxGeometry>
        </mxCell>
        <mxCell id="7M1A2IwBAG58vpG92mjd-15" value="Выйти из аккаунта" style="ellipse;whiteSpace=wrap;html=1;fillColor=#f8cecc;strokeColor=#b85450;" parent="1" vertex="1">
          <mxGeometry x="-140" y="419.72" width="120" height="40" as="geometry" />
        </mxCell>
        <mxCell id="7M1A2IwBAG58vpG92mjd-16" value="Войти в аккаунт" style="ellipse;whiteSpace=wrap;html=1;fillColor=#f8cecc;strokeColor=#b85450;gradientDirection=east;" parent="1" vertex="1">
          <mxGeometry x="-310" y="444.72" width="120" height="40" as="geometry" />
        </mxCell>
        <mxCell id="7M1A2IwBAG58vpG92mjd-26" value="" style="endArrow=classic;html=1;rounded=0;entryX=0.5;entryY=0;entryDx=0;entryDy=0;" parent="1" target="7M1A2IwBAG58vpG92mjd-16" edge="1">
          <mxGeometry width="50" height="50" relative="1" as="geometry">
            <mxPoint x="-250" y="400" as="sourcePoint" />
            <mxPoint x="-369" y="428" as="targetPoint" />
          </mxGeometry>
        </mxCell>
        <mxCell id="7M1A2IwBAG58vpG92mjd-27" value="" style="endArrow=classic;html=1;rounded=0;entryX=0;entryY=0;entryDx=0;entryDy=0;" parent="1" target="7M1A2IwBAG58vpG92mjd-15" edge="1">
          <mxGeometry width="50" height="50" relative="1" as="geometry">
            <mxPoint x="-180" y="400" as="sourcePoint" />
            <mxPoint x="-40" y="320" as="targetPoint" />
          </mxGeometry>
        </mxCell>
        <mxCell id="7M1A2IwBAG58vpG92mjd-28" value="&quot;extend&quot;" style="endArrow=open;startArrow=none;endFill=0;startFill=0;endSize=8;html=1;verticalAlign=bottom;dashed=1;labelBackgroundColor=none;rounded=0;exitX=1;exitY=0;exitDx=0;exitDy=0;entryX=0.184;entryY=0.854;entryDx=0;entryDy=0;entryPerimeter=0;" parent="1" source="h86G1SmnbexspQALYNn9-15" target="0SK4Kan7_9GHJnEtyxV1-69" edge="1">
          <mxGeometry x="-0.3182" y="-1" width="160" relative="1" as="geometry">
            <mxPoint x="-110" y="749.44" as="sourcePoint" />
            <mxPoint x="-460" y="450" as="targetPoint" />
            <mxPoint as="offset" />
          </mxGeometry>
        </mxCell>
        <mxCell id="7M1A2IwBAG58vpG92mjd-29" value="&quot;extend&quot;" style="endArrow=open;startArrow=none;endFill=0;startFill=0;endSize=8;html=1;verticalAlign=bottom;dashed=1;labelBackgroundColor=none;rounded=0;exitX=0.908;exitY=0.785;exitDx=0;exitDy=0;entryX=0.089;entryY=0.168;entryDx=0;entryDy=0;entryPerimeter=0;exitPerimeter=0;" parent="1" source="0SK4Kan7_9GHJnEtyxV1-70" target="0SK4Kan7_9GHJnEtyxV1-69" edge="1">
          <mxGeometry x="-0.3182" y="-1" width="160" relative="1" as="geometry">
            <mxPoint x="-495" y="500" as="sourcePoint" />
            <mxPoint x="-458" y="454" as="targetPoint" />
            <mxPoint as="offset" />
          </mxGeometry>
        </mxCell>
        <mxCell id="7M1A2IwBAG58vpG92mjd-30" value="&quot;extend&quot;" style="endArrow=open;startArrow=none;endFill=0;startFill=0;endSize=8;html=1;verticalAlign=bottom;dashed=1;labelBackgroundColor=none;rounded=0;exitX=1;exitY=0.5;exitDx=0;exitDy=0;entryX=0;entryY=0.5;entryDx=0;entryDy=0;" parent="1" source="h86G1SmnbexspQALYNn9-6" target="h86G1SmnbexspQALYNn9-4" edge="1">
          <mxGeometry x="-0.3182" y="-1" width="160" relative="1" as="geometry">
            <mxPoint x="-521" y="371" as="sourcePoint" />
            <mxPoint x="-469" y="426" as="targetPoint" />
            <mxPoint as="offset" />
          </mxGeometry>
        </mxCell>
        <mxCell id="7M1A2IwBAG58vpG92mjd-31" value="&quot;extend&quot;" style="endArrow=open;startArrow=none;endFill=0;startFill=0;endSize=8;html=1;verticalAlign=bottom;dashed=1;labelBackgroundColor=none;rounded=0;exitX=1;exitY=0.5;exitDx=0;exitDy=0;entryX=0;entryY=0.5;entryDx=0;entryDy=0;" parent="1" source="h86G1SmnbexspQALYNn9-7" target="h86G1SmnbexspQALYNn9-3" edge="1">
          <mxGeometry x="-0.3182" y="-1" width="160" relative="1" as="geometry">
            <mxPoint x="-482" y="200" as="sourcePoint" />
            <mxPoint x="-417" y="235" as="targetPoint" />
            <mxPoint as="offset" />
          </mxGeometry>
        </mxCell>
        <mxCell id="7M1A2IwBAG58vpG92mjd-32" value="&quot;extend&quot;" style="endArrow=open;startArrow=none;endFill=0;startFill=0;endSize=8;html=1;verticalAlign=bottom;dashed=1;labelBackgroundColor=none;rounded=0;exitX=1;exitY=1;exitDx=0;exitDy=0;entryX=0.061;entryY=0.235;entryDx=0;entryDy=0;entryPerimeter=0;" parent="1" source="h86G1SmnbexspQALYNn9-8" target="h86G1SmnbexspQALYNn9-3" edge="1">
          <mxGeometry x="0.1089" y="-2" width="160" relative="1" as="geometry">
            <mxPoint x="-460" y="190" as="sourcePoint" />
            <mxPoint x="-367" y="209" as="targetPoint" />
            <mxPoint as="offset" />
          </mxGeometry>
        </mxCell>
        <mxCell id="7M1A2IwBAG58vpG92mjd-33" value="&quot;extend&quot;" style="endArrow=open;startArrow=none;endFill=0;startFill=0;endSize=8;html=1;verticalAlign=bottom;dashed=1;labelBackgroundColor=none;rounded=0;exitX=0.5;exitY=1;exitDx=0;exitDy=0;entryX=0.321;entryY=0.036;entryDx=0;entryDy=0;entryPerimeter=0;" parent="1" source="h86G1SmnbexspQALYNn9-13" target="0SK4Kan7_9GHJnEtyxV1-131" edge="1">
          <mxGeometry x="0.1285" y="1" width="160" relative="1" as="geometry">
            <mxPoint x="-450" y="200" as="sourcePoint" />
            <mxPoint x="-357" y="219" as="targetPoint" />
            <mxPoint as="offset" />
          </mxGeometry>
        </mxCell>
        <mxCell id="7M1A2IwBAG58vpG92mjd-34" value="&quot;extend&quot;" style="endArrow=open;startArrow=none;endFill=0;startFill=0;endSize=8;html=1;verticalAlign=bottom;dashed=1;labelBackgroundColor=none;rounded=0;exitX=0;exitY=0;exitDx=0;exitDy=0;entryX=0.5;entryY=1;entryDx=0;entryDy=0;" parent="1" source="0SK4Kan7_9GHJnEtyxV1-139" target="0SK4Kan7_9GHJnEtyxV1-132" edge="1">
          <mxGeometry x="0.1285" y="1" width="160" relative="1" as="geometry">
            <mxPoint x="-115" y="147" as="sourcePoint" />
            <mxPoint x="-108" y="188" as="targetPoint" />
            <mxPoint as="offset" />
          </mxGeometry>
        </mxCell>
        <mxCell id="7M1A2IwBAG58vpG92mjd-35" value="Просмотр списка блюд" style="ellipse;whiteSpace=wrap;html=1;fillColor=#ffe6cc;strokeColor=#d79b00;" parent="1" vertex="1">
          <mxGeometry x="-1845" y="824.86" width="120" height="40" as="geometry" />
        </mxCell>
        <mxCell id="7M1A2IwBAG58vpG92mjd-36" value="Выбор категории блюда" style="ellipse;whiteSpace=wrap;html=1;fillColor=#ffe6cc;strokeColor=#d79b00;" parent="1" vertex="1">
          <mxGeometry x="-1995" y="744.86" width="120" height="40" as="geometry" />
        </mxCell>
        <mxCell id="7M1A2IwBAG58vpG92mjd-37" value="" style="endArrow=classic;html=1;rounded=0;exitX=0;exitY=0.5;exitDx=0;exitDy=0;fillColor=#ffe6cc;strokeColor=#000000;" parent="1" source="7M1A2IwBAG58vpG92mjd-35" edge="1">
          <mxGeometry width="50" height="50" relative="1" as="geometry">
            <mxPoint x="-2014" y="1100.42" as="sourcePoint" />
            <mxPoint x="-1895" y="835.42" as="targetPoint" />
          </mxGeometry>
        </mxCell>
        <mxCell id="7M1A2IwBAG58vpG92mjd-38" value="Просмотр детальной информации о блюде" style="ellipse;whiteSpace=wrap;html=1;fillColor=#ffe6cc;strokeColor=#d79b00;" parent="1" vertex="1">
          <mxGeometry x="-2035" y="815.42" width="140" height="40" as="geometry" />
        </mxCell>
        <mxCell id="7M1A2IwBAG58vpG92mjd-39" value="Поиск блюд по имени и описанию" style="ellipse;whiteSpace=wrap;html=1;fillColor=#ffe6cc;strokeColor=#d79b00;" parent="1" vertex="1">
          <mxGeometry x="-1980" y="885.42" width="120" height="40" as="geometry" />
        </mxCell>
        <mxCell id="7M1A2IwBAG58vpG92mjd-40" value="&quot;extend&quot;" style="endArrow=open;startArrow=none;endFill=0;startFill=0;endSize=8;html=1;verticalAlign=bottom;dashed=1;labelBackgroundColor=none;rounded=0;exitX=1;exitY=0.5;exitDx=0;exitDy=0;entryX=0.184;entryY=0.854;entryDx=0;entryDy=0;entryPerimeter=0;fillColor=#ffe6cc;strokeColor=#000000;" parent="1" source="7M1A2IwBAG58vpG92mjd-39" target="7M1A2IwBAG58vpG92mjd-35" edge="1">
          <mxGeometry x="-0.3182" y="-1" width="160" relative="1" as="geometry">
            <mxPoint x="-1465" y="1164.8600000000001" as="sourcePoint" />
            <mxPoint x="-1815" y="865.42" as="targetPoint" />
            <mxPoint as="offset" />
          </mxGeometry>
        </mxCell>
        <mxCell id="7M1A2IwBAG58vpG92mjd-41" value="&quot;extend&quot;" style="endArrow=open;startArrow=none;endFill=0;startFill=0;endSize=8;html=1;verticalAlign=bottom;dashed=1;labelBackgroundColor=none;rounded=0;exitX=0.908;exitY=0.785;exitDx=0;exitDy=0;entryX=0.089;entryY=0.168;entryDx=0;entryDy=0;entryPerimeter=0;exitPerimeter=0;fillColor=#ffe6cc;strokeColor=#000000;" parent="1" source="7M1A2IwBAG58vpG92mjd-36" target="7M1A2IwBAG58vpG92mjd-35" edge="1">
          <mxGeometry x="-0.3182" y="-1" width="160" relative="1" as="geometry">
            <mxPoint x="-1850" y="915.42" as="sourcePoint" />
            <mxPoint x="-1813" y="869.42" as="targetPoint" />
            <mxPoint as="offset" />
          </mxGeometry>
        </mxCell>
        <mxCell id="7M1A2IwBAG58vpG92mjd-42" value="" style="endArrow=classic;html=1;rounded=0;entryX=1;entryY=0.5;entryDx=0;entryDy=0;" parent="1" target="7M1A2IwBAG58vpG92mjd-35" edge="1">
          <mxGeometry width="50" height="50" relative="1" as="geometry">
            <mxPoint x="-1610" y="885.14" as="sourcePoint" />
            <mxPoint x="-1685" y="935.14" as="targetPoint" />
            <Array as="points" />
          </mxGeometry>
        </mxCell>
        <mxCell id="7M1A2IwBAG58vpG92mjd-43" value="" style="endArrow=classic;html=1;rounded=0;entryX=1;entryY=1;entryDx=0;entryDy=0;" parent="1" target="h86G1SmnbexspQALYNn9-16" edge="1">
          <mxGeometry width="50" height="50" relative="1" as="geometry">
            <mxPoint x="-1610" y="865.14" as="sourcePoint" />
            <mxPoint x="-1715" y="855.14" as="targetPoint" />
            <Array as="points" />
          </mxGeometry>
        </mxCell>
        <mxCell id="7M1A2IwBAG58vpG92mjd-44" value="" style="endArrow=classic;html=1;rounded=0;entryX=0.717;entryY=0.947;entryDx=0;entryDy=0;entryPerimeter=0;" parent="1" target="0SK4Kan7_9GHJnEtyxV1-54" edge="1">
          <mxGeometry width="50" height="50" relative="1" as="geometry">
            <mxPoint x="-1600" y="855.14" as="sourcePoint" />
            <mxPoint x="-1718" y="809.14" as="targetPoint" />
            <Array as="points" />
          </mxGeometry>
        </mxCell>
        <mxCell id="7M1A2IwBAG58vpG92mjd-45" value="&quot;extend&quot;" style="endArrow=open;startArrow=none;endFill=0;startFill=0;endSize=8;html=1;verticalAlign=bottom;dashed=1;labelBackgroundColor=none;rounded=0;exitX=0.5;exitY=0;exitDx=0;exitDy=0;entryX=0.624;entryY=1;entryDx=0;entryDy=0;entryPerimeter=0;fillColor=#ffe6cc;strokeColor=#000000;" parent="1" source="0SK4Kan7_9GHJnEtyxV1-98" target="0SK4Kan7_9GHJnEtyxV1-86" edge="1">
          <mxGeometry x="-0.3182" y="-1" width="160" relative="1" as="geometry">
            <mxPoint x="-1850" y="915.14" as="sourcePoint" />
            <mxPoint x="-1813" y="869.14" as="targetPoint" />
            <mxPoint as="offset" />
          </mxGeometry>
        </mxCell>
        <mxCell id="7M1A2IwBAG58vpG92mjd-46" value="&quot;extend&quot;" style="endArrow=open;startArrow=none;endFill=0;startFill=0;endSize=8;html=1;verticalAlign=bottom;dashed=1;labelBackgroundColor=none;rounded=0;exitX=0.5;exitY=1;exitDx=0;exitDy=0;entryX=0.713;entryY=0.004;entryDx=0;entryDy=0;entryPerimeter=0;" parent="1" source="0SK4Kan7_9GHJnEtyxV1-157" target="0SK4Kan7_9GHJnEtyxV1-131" edge="1">
          <mxGeometry x="0.1285" y="1" width="160" relative="1" as="geometry">
            <mxPoint x="-115" y="147" as="sourcePoint" />
            <mxPoint x="-108" y="188" as="targetPoint" />
            <mxPoint as="offset" />
          </mxGeometry>
        </mxCell>
        <mxCell id="7M1A2IwBAG58vpG92mjd-47" value="&quot;extend&quot;" style="endArrow=open;startArrow=none;endFill=0;startFill=0;endSize=8;html=1;verticalAlign=bottom;dashed=1;labelBackgroundColor=none;rounded=0;exitX=0;exitY=1;exitDx=0;exitDy=0;entryX=1;entryY=0;entryDx=0;entryDy=0;" parent="1" source="0SK4Kan7_9GHJnEtyxV1-161" target="0SK4Kan7_9GHJnEtyxV1-131" edge="1">
          <mxGeometry x="0.1285" y="1" width="160" relative="1" as="geometry">
            <mxPoint x="-20" y="104" as="sourcePoint" />
            <mxPoint x="-57" y="187" as="targetPoint" />
            <mxPoint as="offset" />
          </mxGeometry>
        </mxCell>
        <mxCell id="7M1A2IwBAG58vpG92mjd-48" value="&quot;extend&quot;" style="endArrow=open;startArrow=none;endFill=0;startFill=0;endSize=8;html=1;verticalAlign=bottom;dashed=1;labelBackgroundColor=none;rounded=0;exitX=0;exitY=0.5;exitDx=0;exitDy=0;entryX=0.945;entryY=0.252;entryDx=0;entryDy=0;entryPerimeter=0;" parent="1" source="0SK4Kan7_9GHJnEtyxV1-148" target="0SK4Kan7_9GHJnEtyxV1-132" edge="1">
          <mxGeometry x="0.1285" y="1" width="160" relative="1" as="geometry">
            <mxPoint x="37" y="139" as="sourcePoint" />
            <mxPoint x="-38" y="193" as="targetPoint" />
            <mxPoint as="offset" />
          </mxGeometry>
        </mxCell>
        <mxCell id="7M1A2IwBAG58vpG92mjd-49" value="&quot;extend&quot;" style="endArrow=open;startArrow=none;endFill=0;startFill=0;endSize=8;html=1;verticalAlign=bottom;dashed=1;labelBackgroundColor=none;rounded=0;exitX=0;exitY=0.5;exitDx=0;exitDy=0;entryX=1;entryY=0.5;entryDx=0;entryDy=0;" parent="1" source="0SK4Kan7_9GHJnEtyxV1-146" target="0SK4Kan7_9GHJnEtyxV1-132" edge="1">
          <mxGeometry x="0.1285" y="1" width="160" relative="1" as="geometry">
            <mxPoint x="175" y="279" as="sourcePoint" />
            <mxPoint x="52" y="315" as="targetPoint" />
            <mxPoint as="offset" />
          </mxGeometry>
        </mxCell>
        <mxCell id="7M1A2IwBAG58vpG92mjd-50" value="&quot;extend&quot;" style="endArrow=open;startArrow=none;endFill=0;startFill=0;endSize=8;html=1;verticalAlign=bottom;dashed=1;labelBackgroundColor=none;rounded=0;exitX=0;exitY=1;exitDx=0;exitDy=0;entryX=0.691;entryY=0.072;entryDx=0;entryDy=0;entryPerimeter=0;" parent="1" source="h86G1SmnbexspQALYNn9-12" target="h86G1SmnbexspQALYNn9-10" edge="1">
          <mxGeometry x="0.1285" y="1" width="160" relative="1" as="geometry">
            <mxPoint x="-20" y="104" as="sourcePoint" />
            <mxPoint x="-57" y="187" as="targetPoint" />
            <mxPoint as="offset" />
          </mxGeometry>
        </mxCell>
        <mxCell id="7M1A2IwBAG58vpG92mjd-51" value="&quot;extend&quot;" style="endArrow=open;startArrow=none;endFill=0;startFill=0;endSize=8;html=1;verticalAlign=bottom;dashed=1;labelBackgroundColor=none;rounded=0;entryX=0.954;entryY=0.192;entryDx=0;entryDy=0;entryPerimeter=0;" parent="1" target="h86G1SmnbexspQALYNn9-3" edge="1">
          <mxGeometry x="-0.449" y="4" width="160" relative="1" as="geometry">
            <mxPoint x="-190" y="50" as="sourcePoint" />
            <mxPoint x="-250" y="97" as="targetPoint" />
            <mxPoint as="offset" />
          </mxGeometry>
        </mxCell>
        <mxCell id="7M1A2IwBAG58vpG92mjd-52" value="&quot;extend&quot;" style="endArrow=open;startArrow=none;endFill=0;startFill=0;endSize=8;html=1;verticalAlign=bottom;dashed=1;labelBackgroundColor=none;rounded=0;exitX=0.5;exitY=1;exitDx=0;exitDy=0;entryX=0.281;entryY=0.053;entryDx=0;entryDy=0;entryPerimeter=0;" parent="1" source="h86G1SmnbexspQALYNn9-11" target="h86G1SmnbexspQALYNn9-10" edge="1">
          <mxGeometry x="0.1285" y="1" width="160" relative="1" as="geometry">
            <mxPoint x="-232" y="58" as="sourcePoint" />
            <mxPoint x="-250" y="97" as="targetPoint" />
            <mxPoint as="offset" />
          </mxGeometry>
        </mxCell>
        <mxCell id="7M1A2IwBAG58vpG92mjd-53" value="&quot;extend&quot;" style="endArrow=open;startArrow=none;endFill=0;startFill=0;endSize=8;html=1;verticalAlign=bottom;dashed=1;labelBackgroundColor=none;rounded=0;exitX=0.757;exitY=0.934;exitDx=0;exitDy=0;entryX=0.251;entryY=0.079;entryDx=0;entryDy=0;entryPerimeter=0;exitPerimeter=0;" parent="1" source="h86G1SmnbexspQALYNn9-9" target="h86G1SmnbexspQALYNn9-3" edge="1">
          <mxGeometry x="0.1285" y="1" width="160" relative="1" as="geometry">
            <mxPoint x="-320" y="40" as="sourcePoint" />
            <mxPoint x="-308" y="96" as="targetPoint" />
            <mxPoint as="offset" />
          </mxGeometry>
        </mxCell>
        <mxCell id="7M1A2IwBAG58vpG92mjd-54" value="Указать отзыв" style="ellipse;whiteSpace=wrap;html=1;fillColor=#dae8fc;strokeColor=#6c8ebf;" parent="1" vertex="1">
          <mxGeometry x="-813" y="1120.42" width="120" height="40" as="geometry" />
        </mxCell>
        <mxCell id="7M1A2IwBAG58vpG92mjd-55" value="&quot;include&quot;" style="endArrow=open;startArrow=none;endFill=0;startFill=0;endSize=8;html=1;verticalAlign=bottom;dashed=1;labelBackgroundColor=none;rounded=0;exitX=0.242;exitY=0.036;exitDx=0;exitDy=0;exitPerimeter=0;entryX=0.607;entryY=0.985;entryDx=0;entryDy=0;entryPerimeter=0;" parent="1" source="7M1A2IwBAG58vpG92mjd-54" target="0SK4Kan7_9GHJnEtyxV1-59" edge="1">
          <mxGeometry x="-0.3158" y="-1" width="160" relative="1" as="geometry">
            <mxPoint x="-1103" y="1050.42" as="sourcePoint" />
            <mxPoint x="-813.06" y="1060.42" as="targetPoint" />
            <mxPoint as="offset" />
          </mxGeometry>
        </mxCell>
        <mxCell id="7M1A2IwBAG58vpG92mjd-56" value="Поставить оценку" style="ellipse;whiteSpace=wrap;html=1;fillColor=#dae8fc;strokeColor=#6c8ebf;" parent="1" vertex="1">
          <mxGeometry x="-793.06" y="895.14" width="120" height="40" as="geometry" />
        </mxCell>
        <mxCell id="7M1A2IwBAG58vpG92mjd-57" value="&quot;include&quot;" style="endArrow=open;startArrow=none;endFill=0;startFill=0;endSize=8;html=1;verticalAlign=bottom;dashed=1;labelBackgroundColor=none;rounded=0;entryX=1;entryY=0;entryDx=0;entryDy=0;" parent="1" target="0SK4Kan7_9GHJnEtyxV1-59" edge="1">
          <mxGeometry x="-0.3158" y="-1" width="160" relative="1" as="geometry">
            <mxPoint x="-733.06" y="935.42" as="sourcePoint" />
            <mxPoint x="-753.06" y="839.42" as="targetPoint" />
            <mxPoint as="offset" />
          </mxGeometry>
        </mxCell>
        <mxCell id="7M1A2IwBAG58vpG92mjd-58" value="Ввод текста для поиска" style="ellipse;whiteSpace=wrap;html=1;fillColor=#ffe6cc;strokeColor=#d79b00;" parent="1" vertex="1">
          <mxGeometry x="-2040" y="981.4999999999999" width="120" height="40" as="geometry" />
        </mxCell>
        <mxCell id="7M1A2IwBAG58vpG92mjd-59" value="&quot;include&quot;" style="endArrow=open;startArrow=none;endFill=0;startFill=0;endSize=8;html=1;verticalAlign=bottom;dashed=1;labelBackgroundColor=none;rounded=0;exitX=0.77;exitY=0.024;exitDx=0;exitDy=0;exitPerimeter=0;entryX=0.5;entryY=1;entryDx=0;entryDy=0;" parent="1" source="7M1A2IwBAG58vpG92mjd-58" target="7M1A2IwBAG58vpG92mjd-39" edge="1">
          <mxGeometry x="-0.3158" y="-1" width="160" relative="1" as="geometry">
            <mxPoint x="-2330" y="911.5" as="sourcePoint" />
            <mxPoint x="-1899.64" y="928.7799999999993" as="targetPoint" />
            <mxPoint as="offset" />
          </mxGeometry>
        </mxCell>
        <mxCell id="7M1A2IwBAG58vpG92mjd-62" value="Ввод текста для поиска" style="ellipse;whiteSpace=wrap;html=1;fillColor=#f8cecc;strokeColor=#b85450;" parent="1" vertex="1">
          <mxGeometry x="-455" y="519.72" width="120" height="40" as="geometry" />
        </mxCell>
        <mxCell id="7M1A2IwBAG58vpG92mjd-63" value="&quot;include&quot;" style="endArrow=open;startArrow=none;endFill=0;startFill=0;endSize=8;html=1;verticalAlign=bottom;dashed=1;labelBackgroundColor=none;rounded=0;exitX=0;exitY=0;exitDx=0;exitDy=0;entryX=0.961;entryY=0.735;entryDx=0;entryDy=0;entryPerimeter=0;" parent="1" source="7M1A2IwBAG58vpG92mjd-62" target="h86G1SmnbexspQALYNn9-15" edge="1">
          <mxGeometry x="-0.3158" y="-1" width="160" relative="1" as="geometry">
            <mxPoint x="-767" y="466.36" as="sourcePoint" />
            <mxPoint x="-357" y="480" as="targetPoint" />
            <mxPoint as="offset" />
          </mxGeometry>
        </mxCell>
        <mxCell id="7M1A2IwBAG58vpG92mjd-64" value="Ввод текста для поиска" style="ellipse;whiteSpace=wrap;html=1;fillColor=#f8cecc;strokeColor=#b85450;" parent="1" vertex="1">
          <mxGeometry x="-760" y="213.58000000000004" width="120" height="40" as="geometry" />
        </mxCell>
        <mxCell id="7M1A2IwBAG58vpG92mjd-65" value="&quot;include&quot;" style="endArrow=open;startArrow=none;endFill=0;startFill=0;endSize=8;html=1;verticalAlign=bottom;dashed=1;labelBackgroundColor=none;rounded=0;exitX=1;exitY=0;exitDx=0;exitDy=0;entryX=0;entryY=1;entryDx=0;entryDy=0;" parent="1" source="7M1A2IwBAG58vpG92mjd-64" target="h86G1SmnbexspQALYNn9-7" edge="1">
          <mxGeometry x="-0.3158" y="-1" width="160" relative="1" as="geometry">
            <mxPoint x="-1040" y="143.58000000000004" as="sourcePoint" />
            <mxPoint x="-796" y="181.22000000000003" as="targetPoint" />
            <mxPoint as="offset" />
          </mxGeometry>
        </mxCell>
        <mxCell id="7M1A2IwBAG58vpG92mjd-66" value="Указать причину" style="ellipse;whiteSpace=wrap;html=1;fillColor=#f8cecc;strokeColor=#b85450;" parent="1" vertex="1">
          <mxGeometry x="-670" y="63.37000000000003" width="120" height="40" as="geometry" />
        </mxCell>
        <mxCell id="7M1A2IwBAG58vpG92mjd-67" value="&quot;include&quot;" style="endArrow=open;startArrow=none;endFill=0;startFill=0;endSize=8;html=1;verticalAlign=bottom;dashed=1;labelBackgroundColor=none;rounded=0;entryX=0;entryY=0.5;entryDx=0;entryDy=0;" parent="1" source="7M1A2IwBAG58vpG92mjd-66" target="h86G1SmnbexspQALYNn9-9" edge="1">
          <mxGeometry x="-0.3158" y="-1" width="160" relative="1" as="geometry">
            <mxPoint x="-950" y="-6.629999999999967" as="sourcePoint" />
            <mxPoint x="-517" y="43.78999999999999" as="targetPoint" />
            <mxPoint as="offset" />
          </mxGeometry>
        </mxCell>
        <mxCell id="7M1A2IwBAG58vpG92mjd-68" value="Ввод текста для поиска" style="ellipse;whiteSpace=wrap;html=1;fillColor=#f8cecc;strokeColor=#b85450;" parent="1" vertex="1">
          <mxGeometry x="-120" y="489.58000000000004" width="120" height="40" as="geometry" />
        </mxCell>
        <mxCell id="7M1A2IwBAG58vpG92mjd-69" value="&quot;include&quot;" style="endArrow=open;startArrow=none;endFill=0;startFill=0;endSize=8;html=1;verticalAlign=bottom;dashed=1;labelBackgroundColor=none;rounded=0;exitX=1;exitY=0;exitDx=0;exitDy=0;entryX=0.226;entryY=0.865;entryDx=0;entryDy=0;entryPerimeter=0;" parent="1" source="7M1A2IwBAG58vpG92mjd-68" target="0SK4Kan7_9GHJnEtyxV1-139" edge="1">
          <mxGeometry x="-0.3158" y="-1" width="160" relative="1" as="geometry">
            <mxPoint x="-400" y="419.58000000000004" as="sourcePoint" />
            <mxPoint x="33" y="470" as="targetPoint" />
            <mxPoint as="offset" />
          </mxGeometry>
        </mxCell>
        <mxCell id="7M1A2IwBAG58vpG92mjd-70" value="Ввод названия" style="ellipse;whiteSpace=wrap;html=1;fillColor=#f8cecc;strokeColor=#b85450;" parent="1" vertex="1">
          <mxGeometry x="60" y="4.263256414560601e-14" width="120" height="40" as="geometry" />
        </mxCell>
        <mxCell id="7M1A2IwBAG58vpG92mjd-71" value="&quot;include&quot;" style="endArrow=open;startArrow=none;endFill=0;startFill=0;endSize=8;html=1;verticalAlign=bottom;dashed=1;labelBackgroundColor=none;rounded=0;exitX=1;exitY=1;exitDx=0;exitDy=0;" parent="1" source="7M1A2IwBAG58vpG92mjd-70" target="0SK4Kan7_9GHJnEtyxV1-167" edge="1">
          <mxGeometry x="-0.3158" y="-1" width="160" relative="1" as="geometry">
            <mxPoint x="-205" y="-51.53999999999996" as="sourcePoint" />
            <mxPoint x="110.16000000000031" y="137.15999999999997" as="targetPoint" />
            <mxPoint as="offset" />
          </mxGeometry>
        </mxCell>
        <mxCell id="7M1A2IwBAG58vpG92mjd-72" value="Ввод описание" style="ellipse;whiteSpace=wrap;html=1;fillColor=#f8cecc;strokeColor=#b85450;" parent="1" vertex="1">
          <mxGeometry x="140" y="-49.99999999999996" width="120" height="40" as="geometry" />
        </mxCell>
        <mxCell id="7M1A2IwBAG58vpG92mjd-73" value="Выбор категории" style="ellipse;whiteSpace=wrap;html=1;fillColor=#f8cecc;strokeColor=#b85450;" parent="1" vertex="1">
          <mxGeometry x="415.06" y="30.000000000000043" width="120" height="40" as="geometry" />
        </mxCell>
        <mxCell id="7M1A2IwBAG58vpG92mjd-74" value="Скрыт от пользователей?" style="ellipse;whiteSpace=wrap;html=1;fillColor=#f8cecc;strokeColor=#b85450;" parent="1" vertex="1">
          <mxGeometry x="345" y="120.00000000000006" width="120" height="40" as="geometry" />
        </mxCell>
        <mxCell id="7M1A2IwBAG58vpG92mjd-75" value="Выбор фото" style="ellipse;whiteSpace=wrap;html=1;fillColor=#f8cecc;strokeColor=#b85450;" parent="1" vertex="1">
          <mxGeometry x="235.06" y="-89.99999999999996" width="120" height="40" as="geometry" />
        </mxCell>
        <mxCell id="7M1A2IwBAG58vpG92mjd-76" value="Удален?" style="ellipse;whiteSpace=wrap;html=1;fillColor=#f8cecc;strokeColor=#b85450;" parent="1" vertex="1">
          <mxGeometry x="370" y="73.58000000000004" width="120" height="40" as="geometry" />
        </mxCell>
        <mxCell id="7M1A2IwBAG58vpG92mjd-77" value="Ввод стоимости" style="ellipse;whiteSpace=wrap;html=1;fillColor=#f8cecc;strokeColor=#b85450;" parent="1" vertex="1">
          <mxGeometry x="390" y="-14.999999999999972" width="120" height="40" as="geometry" />
        </mxCell>
        <mxCell id="7M1A2IwBAG58vpG92mjd-78" value="Ввод веса" style="ellipse;whiteSpace=wrap;html=1;fillColor=#f8cecc;strokeColor=#b85450;" parent="1" vertex="1">
          <mxGeometry x="330" y="-59.99999999999997" width="120" height="40" as="geometry" />
        </mxCell>
        <mxCell id="7M1A2IwBAG58vpG92mjd-81" value="&quot;include&quot;" style="endArrow=open;startArrow=none;endFill=0;startFill=0;endSize=8;html=1;verticalAlign=bottom;dashed=1;labelBackgroundColor=none;rounded=0;exitX=0.761;exitY=1.018;exitDx=0;exitDy=0;exitPerimeter=0;entryX=0.5;entryY=0;entryDx=0;entryDy=0;" parent="1" source="7M1A2IwBAG58vpG92mjd-72" target="0SK4Kan7_9GHJnEtyxV1-167" edge="1">
          <mxGeometry x="-0.3158" y="-1" width="160" relative="1" as="geometry">
            <mxPoint x="172" y="44" as="sourcePoint" />
            <mxPoint x="224" y="104" as="targetPoint" />
            <mxPoint as="offset" />
          </mxGeometry>
        </mxCell>
        <mxCell id="7M1A2IwBAG58vpG92mjd-82" value="&quot;include&quot;" style="endArrow=open;startArrow=none;endFill=0;startFill=0;endSize=8;html=1;verticalAlign=bottom;dashed=1;labelBackgroundColor=none;rounded=0;exitX=0.5;exitY=1;exitDx=0;exitDy=0;entryX=0.644;entryY=0.019;entryDx=0;entryDy=0;entryPerimeter=0;" parent="1" source="7M1A2IwBAG58vpG92mjd-75" target="0SK4Kan7_9GHJnEtyxV1-167" edge="1">
          <mxGeometry x="-0.3158" y="-1" width="160" relative="1" as="geometry">
            <mxPoint x="241" y="1" as="sourcePoint" />
            <mxPoint x="250" y="90" as="targetPoint" />
            <mxPoint as="offset" />
          </mxGeometry>
        </mxCell>
        <mxCell id="7M1A2IwBAG58vpG92mjd-83" value="&quot;include&quot;" style="endArrow=open;startArrow=none;endFill=0;startFill=0;endSize=8;html=1;verticalAlign=bottom;dashed=1;labelBackgroundColor=none;rounded=0;exitX=0;exitY=1;exitDx=0;exitDy=0;entryX=0.778;entryY=0.076;entryDx=0;entryDy=0;entryPerimeter=0;" parent="1" source="7M1A2IwBAG58vpG92mjd-78" target="0SK4Kan7_9GHJnEtyxV1-167" edge="1">
          <mxGeometry x="-0.3158" y="-1" width="160" relative="1" as="geometry">
            <mxPoint x="305" y="-40" as="sourcePoint" />
            <mxPoint x="257" y="104" as="targetPoint" />
            <mxPoint as="offset" />
          </mxGeometry>
        </mxCell>
        <mxCell id="7M1A2IwBAG58vpG92mjd-84" value="&quot;include&quot;" style="endArrow=open;startArrow=none;endFill=0;startFill=0;endSize=8;html=1;verticalAlign=bottom;dashed=1;labelBackgroundColor=none;rounded=0;exitX=0;exitY=0.5;exitDx=0;exitDy=0;" parent="1" source="7M1A2IwBAG58vpG92mjd-77" edge="1">
          <mxGeometry x="-0.3158" y="-1" width="160" relative="1" as="geometry">
            <mxPoint x="358" y="-16" as="sourcePoint" />
            <mxPoint x="280" y="100" as="targetPoint" />
            <mxPoint as="offset" />
          </mxGeometry>
        </mxCell>
        <mxCell id="7M1A2IwBAG58vpG92mjd-85" value="&quot;include&quot;" style="endArrow=open;startArrow=none;endFill=0;startFill=0;endSize=8;html=1;verticalAlign=bottom;dashed=1;labelBackgroundColor=none;rounded=0;exitX=0;exitY=0.5;exitDx=0;exitDy=0;entryX=0.975;entryY=0.297;entryDx=0;entryDy=0;entryPerimeter=0;" parent="1" source="7M1A2IwBAG58vpG92mjd-73" target="0SK4Kan7_9GHJnEtyxV1-167" edge="1">
          <mxGeometry x="-0.3158" y="-1" width="160" relative="1" as="geometry">
            <mxPoint x="400" y="15" as="sourcePoint" />
            <mxPoint x="290" y="100" as="targetPoint" />
            <mxPoint as="offset" />
          </mxGeometry>
        </mxCell>
        <mxCell id="7M1A2IwBAG58vpG92mjd-86" value="&quot;include&quot;" style="endArrow=open;startArrow=none;endFill=0;startFill=0;endSize=8;html=1;verticalAlign=bottom;dashed=1;labelBackgroundColor=none;rounded=0;exitX=0;exitY=0.5;exitDx=0;exitDy=0;entryX=1;entryY=0.5;entryDx=0;entryDy=0;" parent="1" source="7M1A2IwBAG58vpG92mjd-76" target="0SK4Kan7_9GHJnEtyxV1-167" edge="1">
          <mxGeometry x="-0.3158" y="-1" width="160" relative="1" as="geometry">
            <mxPoint x="410" y="25" as="sourcePoint" />
            <mxPoint x="300" y="120" as="targetPoint" />
            <mxPoint as="offset" />
          </mxGeometry>
        </mxCell>
        <mxCell id="7M1A2IwBAG58vpG92mjd-87" value="&quot;include&quot;" style="endArrow=open;startArrow=none;endFill=0;startFill=0;endSize=8;html=1;verticalAlign=bottom;dashed=1;labelBackgroundColor=none;rounded=0;exitX=0;exitY=0.5;exitDx=0;exitDy=0;entryX=0.932;entryY=0.729;entryDx=0;entryDy=0;entryPerimeter=0;" parent="1" source="7M1A2IwBAG58vpG92mjd-74" target="0SK4Kan7_9GHJnEtyxV1-167" edge="1">
          <mxGeometry x="-0.3158" y="-1" width="160" relative="1" as="geometry">
            <mxPoint x="380" y="104" as="sourcePoint" />
            <mxPoint x="300" y="124" as="targetPoint" />
            <mxPoint as="offset" />
          </mxGeometry>
        </mxCell>
        <mxCell id="7M1A2IwBAG58vpG92mjd-88" value="" style="endArrow=block;html=1;rounded=0;align=center;verticalAlign=bottom;endFill=0;labelBackgroundColor=none;endSize=8;fontSize=10;exitX=0.568;exitY=0.973;exitDx=0;exitDy=0;exitPerimeter=0;entryX=0.5;entryY=0;entryDx=0;entryDy=0;" parent="1" source="0SK4Kan7_9GHJnEtyxV1-167" target="0SK4Kan7_9GHJnEtyxV1-159" edge="1">
          <mxGeometry relative="1" as="geometry">
            <mxPoint x="310" y="820" as="sourcePoint" />
            <mxPoint x="310" y="860" as="targetPoint" />
          </mxGeometry>
        </mxCell>
        <mxCell id="7M1A2IwBAG58vpG92mjd-89" value="" style="resizable=0;html=1;align=center;verticalAlign=top;labelBackgroundColor=none;fontSize=10;" parent="7M1A2IwBAG58vpG92mjd-88" connectable="0" vertex="1">
          <mxGeometry relative="1" as="geometry">
            <mxPoint x="-1835" y="601" as="offset" />
          </mxGeometry>
        </mxCell>
        <mxCell id="y4efmcB2x4hrbWVvXJeR-2" value="Просмотр информации &lt;br&gt;о заказе" style="ellipse;whiteSpace=wrap;html=1;fillColor=#d5e8d4;strokeColor=#82b366;gradientDirection=east;" parent="1" vertex="1">
          <mxGeometry x="-1708.94" y="1270.1399999999999" width="165" height="40" as="geometry" />
        </mxCell>
        <mxCell id="y4efmcB2x4hrbWVvXJeR-3" value="&quot;extend&quot;" style="endArrow=open;startArrow=none;endFill=0;startFill=0;endSize=8;html=1;verticalAlign=bottom;dashed=1;labelBackgroundColor=none;rounded=0;exitX=0.5;exitY=0;exitDx=0;exitDy=0;entryX=0.5;entryY=1;entryDx=0;entryDy=0;" parent="1" source="y4efmcB2x4hrbWVvXJeR-2" target="h86G1SmnbexspQALYNn9-2" edge="1">
          <mxGeometry x="-0.3182" y="-1" width="160" relative="1" as="geometry">
            <mxPoint x="-1426.94" y="1320.1399999999999" as="sourcePoint" />
            <mxPoint x="-1421.94" y="1280.1399999999999" as="targetPoint" />
            <mxPoint as="offset" />
          </mxGeometry>
        </mxCell>
        <mxCell id="y4efmcB2x4hrbWVvXJeR-4" value="&quot;extend&quot;" style="endArrow=open;startArrow=none;endFill=0;startFill=0;endSize=8;html=1;verticalAlign=bottom;dashed=1;labelBackgroundColor=none;rounded=0;exitX=0.5;exitY=0;exitDx=0;exitDy=0;entryX=0.653;entryY=0.964;entryDx=0;entryDy=0;entryPerimeter=0;fillColor=#ffe6cc;strokeColor=#000000;" parent="1" source="0SK4Kan7_9GHJnEtyxV1-88" target="0SK4Kan7_9GHJnEtyxV1-94" edge="1">
          <mxGeometry x="-0.3182" y="-1" width="160" relative="1" as="geometry">
            <mxPoint x="-1650" y="1100.1399999999999" as="sourcePoint" />
            <mxPoint x="-1666" y="1055.1399999999999" as="targetPoint" />
            <mxPoint as="offset" />
          </mxGeometry>
        </mxCell>
      </root>
    </mxGraphModel>
  </diagram>
</mxfile>
